<?xml version="1.0" encoding="utf-8"?>
<!-- Generator: Adobe Illustrator 21.0.0, SVG Export Plug-In . SVG Version: 6.00 Build 0)  -->
<svg version="1.0" id="Layer_1" xmlns="http://www.w3.org/2000/svg" xmlns:xlink="http://www.w3.org/1999/xlink" x="0px" y="0px"
	 viewBox="0 0 154.3 45.4" style="enable-background:new 0 0 154.3 45.4;" xml:space="preserve">
<style type="text/css">
	.st1{fill:#2ED06E;}
</style>

<path class="st1" d="M22.4,2.3c-11.6,0-21,9.4-21,21c0,11.6,9.4,21,21,21c11.6,0,21-9.4,21-21C43.5,11.7,34,2.3,22.4,2.3z M22,34.5
	c-0.3,0.6-0.7,1.1-1.2,1.4c0-0.6-0.2-1.1-0.6-1.6c-0.2-0.3-0.6-0.7-1.2-1.1L18.7,33c-0.7-0.6-1.3-1.1-1.5-1.5
	c-0.5-0.6-0.8-1.3-0.8-2c-0.1-1.4,0.3-2.8,1-4.3c0.2,0.6,0.5,1.3,0.9,1.8c0.3,0.4,0.7,0.9,1.3,1.5l0.6,0.6c0.7,0.7,1.2,1.3,1.5,1.6
	c0.5,0.5,0.7,1.1,0.7,1.9C22.4,33.3,22.3,33.9,22,34.5z M22.5,28.6c-0.2-0.2-0.4-0.3-0.6-0.5l-0.3-0.2c-1-0.5-1.9-1.2-2.5-1.9
	c-0.6-0.6-1.1-1.3-1.4-2c-0.3-0.6-0.5-1.3-0.5-2c-0.1-0.6,0-1.2,0.1-1.9c0.1-0.5,0.3-1,0.6-1.6c0.2-0.4,0.4-0.9,0.6-1.3
	c0.2-0.3,0.4-0.6,0.6-0.8l0.3-0.3c0.2-0.3,0.4-0.5,0.5-0.7c0.5-0.8,1-1.5,1.2-2.2c0.3-0.8,0.3-1.7,0.2-2.6c1.2,1,1.9,2.1,2.1,3.4
	c0.3,1.3,0.1,2.6-0.6,3.9c-0.2,0.2-0.4,0.6-0.6,1c-0.5,0.8-0.9,1.5-1,1.9c-0.5,1.4-0.4,2.9,0.5,4.6l1.5,3.9
	C23.1,29.2,22.9,28.9,22.5,28.6z M27.7,31.3c-0.4,0.8-0.8,1.4-1.4,2c-0.5,0.5-1.2,1-2,1.4l0.3-0.6c0.7-1.4,1-2.8,0.8-4.2
	c-0.2-1.3-0.7-2.6-1.7-4c-0.8-1.2-1.1-2.5-0.7-4c0.2-1,0.8-2,1.7-3c-0.1,0.9,0.1,1.8,0.5,2.6c0.2,0.5,0.7,1.3,1.3,2.2l0.1,0.1
	c0.6,0.9,1.1,1.7,1.4,2.3c0.4,0.8,0.5,1.5,0.5,2.3C28.4,29.2,28.2,30.2,27.7,31.3z"/>



</svg>
